<?xml version="1.0" encoding="utf-8"?>
<svg version="1.1" xmlns="http://www.w3.org/2000/svg" xmlns:xlink="http://www.w3.org/1999/xlink">  
  
  <svg id="active" viewBox="0 0 426 426" width="24" height="24">
    <path d="M213.333,0C95.518,0,0,95.514,0,213.333s95.518,213.333,213.333,213.333 c117.828,0,213.333-95.514,213.333-213.333S331.157,0,213.333,0z M174.199,322.918l-93.935-93.931l31.309-31.309l62.626,62.622 l140.894-140.898l31.309,31.309L174.199,322.918z"/>
  </svg>
  
  <svg id="right-arrow" viewBox="0 0 31 31" width="24" height="24">
    <path d="M21.205,5.007c-0.429-0.444-1.143-0.444-1.587,0c-0.429,0.429-0.429,1.143,0,1.571l8.047,8.047H1.111 C0.492,14.626,0,15.118,0,15.737c0,0.619,0.492,1.127,1.111,1.127h26.554l-8.047,8.032c-0.429,0.444-0.429,1.159,0,1.587 c0.444,0.444,1.159,0.444,1.587,0l9.952-9.952c0.444-0.429,0.444-1.143,0-1.571L21.205,5.007z"/>
  </svg>

  <svg id="heart" viewBox="0 0 512 512" width="24" height="24">
    <path d="M47.6 300.4L228.3 469.1c7.5 7 17.4 10.9 27.7 10.9s20.2-3.9 27.7-10.9L464.4 300.4c30.4-28.3 47.6-68 47.6-109.5v-5.8c0-69.9-50.5-129.5-119.4-141C347 36.5 300.6 51.4 268 84L256 96 244 84c-32.6-32.6-79-47.5-124.6-39.9C50.5 55.6 0 115.2 0 185.1v5.8c0 41.5 17.2 81.2 47.6 109.5z"/>
  </svg>

  <svg id="peace" viewBox="0 0 512 512" width="24" height="24">
    <path d="M224 445.3V323.5l-94.3 77.1c26.1 22.8 58.5 38.7 94.3 44.7zM89.2 351.1L224 240.8V66.7C133.2 81.9 64 160.9 64 256c0 34.6 9.2 67.1 25.2 95.1zm293.1 49.5L288 323.5V445.3c35.7-6 68.1-21.9 94.3-44.7zm40.6-49.5c16-28 25.2-60.5 25.2-95.1c0-95.1-69.2-174.1-160-189.3V240.8L422.8 351.1zM512 256c0 141.4-114.6 256-256 256S0 397.4 0 256S114.6 0 256 0S512 114.6 512 256z"/>
  </svg>

  <svg id="hand-peace" viewBox="0 0 512 512" width="24" height="24">
    <path d="M224 0c17.7 0 32 14.3 32 32V240H192V32c0-17.7 14.3-32 32-32zm96 160c17.7 0 32 14.3 32 32v64c0 17.7-14.3 32-32 32s-32-14.3-32-32V192c0-17.7 14.3-32 32-32zm64 64c0-17.7 14.3-32 32-32s32 14.3 32 32v64c0 17.7-14.3 32-32 32s-32-14.3-32-32V224zM93.3 51.2L175.9 240H106.1L34.7 76.8C27.6 60.6 35 41.8 51.2 34.7s35.1 .3 42.1 16.5zm27 221.3l-.2-.5h69.9H216c22.1 0 40 17.9 40 40s-17.9 40-40 40H160c-8.8 0-16 7.2-16 16s7.2 16 16 16h56c39.8 0 72-32.2 72-72l0-.6c9.4 5.4 20.3 8.6 32 8.6c13.2 0 25.4-4 35.6-10.8c8.7 24.9 32.5 42.8 60.4 42.8c11.7 0 22.6-3.1 32-8.6V352c0 88.4-71.6 160-160 160H226.3c-42.4 0-83.1-16.9-113.1-46.9l-11.6-11.6C77.5 429.5 64 396.9 64 363V336c0-32.7 24.6-59.7 56.3-63.5z"/>
  </svg>

  <svg id="edit" viewBox="0 0 512 512" width="24" height="24">
    <path d="M471.6 21.7c-21.9-21.9-57.3-21.9-79.2 0L362.3 51.7l97.9 97.9 30.1-30.1c21.9-21.9 21.9-57.3 0-79.2L471.6 21.7zm-299.2 220c-6.1 6.1-10.8 13.6-13.5 21.9l-29.6 88.8c-2.9 8.6-.6 18.1 5.8 24.6s15.9 8.7 24.6 5.8l88.8-29.6c8.2-2.8 15.7-7.4 21.9-13.5L437.7 172.3 339.7 74.3 172.4 241.7zM96 64C43 64 0 107 0 160V416c0 53 43 96 96 96H352c53 0 96-43 96-96V320c0-17.7-14.3-32-32-32s-32 14.3-32 32v96c0 17.7-14.3 32-32 32H96c-17.7 0-32-14.3-32-32V160c0-17.7 14.3-32 32-32h96c17.7 0 32-14.3 32-32s-14.3-32-32-32H96z"/>
  </svg>

  <svg id="trash" viewBox="0 0 448 512" width="24" height="24">
    <path d="M135.2 17.7L128 32H32C14.3 32 0 46.3 0 64S14.3 96 32 96H416c17.7 0 32-14.3 32-32s-14.3-32-32-32H320l-7.2-14.3C307.4 6.8 296.3 0 284.2 0H163.8c-12.1 0-23.2 6.8-28.6 17.7zM416 128H32L53.2 467c1.6 25.3 22.6 45 47.9 45H346.9c25.3 0 46.3-19.7 47.9-45L416 128z"/>
  </svg>
</svg>